<svg width="400" height="300" xmlns="http://www.w3.org/2000/svg">
        <defs>
          <linearGradient id="skyGrad3" x1="0%" y1="0%" x2="0%" y2="100%">
            <stop offset="0%" style="stop-color:#87CEEB;stop-opacity:1" />
            <stop offset="100%" style="stop-color:#E0F6FF;stop-opacity:1" />
          </linearGradient>
        </defs>
        <rect width="400" height="300" fill="url(#skyGrad3)"/>
        <rect x="80" y="80" width="240" height="180" fill="#708090" stroke="#2F4F4F" stroke-width="2"/>
        <rect x="90" y="100" width="25" height="25" fill="#4169E1" stroke="#000080" stroke-width="1"/>
        <rect x="125" y="100" width="25" height="25" fill="#4169E1" stroke="#000080" stroke-width="1"/>
        <rect x="160" y="100" width="25" height="25" fill="#4169E1" stroke="#000080" stroke-width="1"/>
        <rect x="195" y="100" width="25" height="25" fill="#4169E1" stroke="#000080" stroke-width="1"/>
        <rect x="230" y="100" width="25" height="25" fill="#4169E1" stroke="#000080" stroke-width="1"/>
        <rect x="265" y="100" width="25" height="25" fill="#4169E1" stroke="#000080" stroke-width="1"/>
        <rect x="90" y="140" width="25" height="25" fill="#4169E1" stroke="#000080" stroke-width="1"/>
        <rect x="125" y="140" width="25" height="25" fill="#4169E1" stroke="#000080" stroke-width="1"/>
        <rect x="160" y="140" width="25" height="25" fill="#4169E1" stroke="#000080" stroke-width="1"/>
        <rect x="195" y="140" width="25" height="25" fill="#4169E1" stroke="#000080" stroke-width="1"/>
        <rect x="230" y="140" width="25" height="25" fill="#4169E1" stroke="#000080" stroke-width="1"/>
        <rect x="265" y="140" width="25" height="25" fill="#4169E1" stroke="#000080" stroke-width="1"/>
        <rect x="180" y="220" width="40" height="40" fill="#8B4513" stroke="#654321" stroke-width="1"/>
        <text x="200" y="40" font-family="Arial" font-size="16" fill="#2F4F4F" text-anchor="middle">Modern Office</text>
      </svg>